<?xml version="1.0" encoding="UTF-8" standalone="no"?>
<svg
   xmlns:dc="http://purl.org/dc/elements/1.1/"
   xmlns:cc="http://creativecommons.org/ns#"
   xmlns:rdf="http://www.w3.org/1999/02/22-rdf-syntax-ns#"
   xmlns:svg="http://www.w3.org/2000/svg"
   xmlns="http://www.w3.org/2000/svg"
   xmlns:sodipodi="http://sodipodi.sourceforge.net/DTD/sodipodi-0.dtd"
   xmlns:inkscape="http://www.inkscape.org/namespaces/inkscape"
   version="1.1"
   id="Capa_1"
   x="0px"
   y="0px"
   width="97.536px"
   height="97.536px"
   viewBox="0 0 97.536 97.536"
   style="enable-background:new 0 0 97.536 97.536;"
   xml:space="preserve"
   sodipodi:docname="lyrics.svg"
   inkscape:version="1.0.1 (3bc2e813f5, 2020-09-07)"><metadata
   id="metadata51"><rdf:RDF><cc:Work
       rdf:about=""><dc:format>image/svg+xml</dc:format><dc:type
         rdf:resource="http://purl.org/dc/dcmitype/StillImage" /></cc:Work></rdf:RDF></metadata><defs
   id="defs49">
	

		
		
		
		
		
	</defs><sodipodi:namedview
   pagecolor="#ffffff"
   bordercolor="#666666"
   borderopacity="1"
   objecttolerance="10"
   gridtolerance="10"
   guidetolerance="10"
   inkscape:pageopacity="0"
   inkscape:pageshadow="2"
   inkscape:window-width="1024"
   inkscape:window-height="705"
   id="namedview47"
   showgrid="false"
   inkscape:zoom="2.5426508"
   inkscape:cx="126.77704"
   inkscape:cy="86.587421"
   inkscape:window-x="-8"
   inkscape:window-y="-8"
   inkscape:window-maximized="1"
   inkscape:current-layer="Capa_1"
   showguides="true"
   inkscape:guide-bbox="true"
   inkscape:document-rotation="0"><sodipodi:guide
     position="48.768,109.728"
     orientation="1,0"
     id="guide905" /><sodipodi:guide
     position="119.56026,48.37471"
     orientation="0,-1"
     id="guide909" /></sodipodi:namedview>
<path
   d="m 1.5,19.546 h 41.757998 c 0.398,0 0.779,-0.100137 1.061,-0.278229 0.282,-0.178092 0.439,-0.420196 0.439,-0.67244 v -6.266178 c 0,-0.525403 -0.672,-0.950669 -1.5,-0.950669 H 1.5 c -0.82800003,0 -1.5,0.425266 -1.5,0.950669 v 6.267445 C 0,19.120734 0.67199997,19.546 1.5,19.546 Z"
   id="path2"
   style="fill:#ffe1a8;fill-opacity:1;stroke-width:0.796104" /><path
   d="M 95.977,82.828577 H 1.5 c -0.828,0 -1.5,0.419052 -1.5,0.936778 v 6.175867 C 0,90.458948 0.672,90.878 1.5,90.878 h 94.477 c 0.398,0 0.779,-0.09867 1.062,-0.274164 0.282,-0.174865 0.438,-0.413431 0.438,-0.662614 v -6.175867 c 0,-0.517726 -0.672,-0.936778 -1.5,-0.936778 z"
   id="path6"
   style="fill:#ffe1a8;fill-opacity:1;stroke-width:0.790265" /><path
   d="m 1.522,58.642044 c -0.828,0 -1.5,0.440977 -1.5,0.984323 v 6.48931 C 0.022,66.659023 0.694,67.1 1.522,67.1 h 94.514 c 0.397,0 0.778,-0.103682 1.062,-0.288078 0.281,-0.184397 0.438,-0.435071 0.438,-0.696245 v -6.48931 c 0,-0.543346 -0.672,-0.984323 -1.5,-0.984323 z"
   id="path8"
   style="fill:#ffe1a8;fill-opacity:1;stroke-width:0.810071" /><path
   d="m 74.921807,7.2940225 c -10.877175,0 -19.694959,8.8177035 -19.694959,19.6949605 0,10.877257 8.817784,19.69496 19.694959,19.69496 10.877182,0 19.694961,-8.817782 19.694961,-19.69496 0,-10.877178 -8.817702,-19.6949605 -19.694961,-19.6949605 z m 10.332551,9.3624125 c 5.197562,5.197563 5.559061,13.141701 1.642064,18.713151 L 66.541126,15.014446 c 5.57526,-3.919614 13.518522,-3.552636 18.713232,1.641989 z M 64.589262,37.321531 C 59.391697,32.123967 59.030199,24.179829 62.947195,18.60838 l 20.355299,20.355138 c -5.575188,3.919614 -13.518528,3.552718 -18.713232,-1.641987 z"
   id="path890"
   style="fill:#ffe1a8;fill-opacity:1;stroke-width:0.0794151" />
<g
   id="g16">
</g>
<g
   id="g18">
</g>
<g
   id="g20">
</g>
<g
   id="g22">
</g>
<g
   id="g24">
</g>
<g
   id="g26">
</g>
<g
   id="g28">
</g>
<g
   id="g30">
</g>
<g
   id="g32">
</g>
<g
   id="g34">
</g>
<g
   id="g36">
</g>
<g
   id="g38">
</g>
<g
   id="g40">
</g>
<g
   id="g42">
</g>
<g
   id="g44">
</g>
<path
   d="m 1.5,43.324 h 41.757998 c 0.398,0 0.779,-0.100137 1.061,-0.278229 0.282,-0.178092 0.439,-0.420196 0.439,-0.67244 v -6.266178 c 0,-0.525403 -0.672,-0.950669 -1.5,-0.950669 H 1.5 c -0.828,0 -1.5,0.425266 -1.5,0.950669 v 6.267445 C 0,42.898734 0.672,43.324 1.5,43.324 Z"
   id="path2-0"
   style="fill:#ffe1a8;fill-opacity:1;stroke-width:0.796104" /><path
   d="M 1.1452603,90.607633 H 42.903258 c 0.398,0 0.779,-0.100137 1.061,-0.278229 0.282,-0.178092 0.439,-0.420196 0.439,-0.67244 v -6.266178 c 0,-0.525403 -0.672,-0.950669 -1.5,-0.950669 H 1.1452603 c -0.82799998,0 -1.49999994,0.425266 -1.49999994,0.950669 v 6.267445 c 0,0.524136 0.67199996,0.949402 1.49999994,0.949402 z"
   id="path2-0-2"
   style="fill:#ffe1a8;fill-opacity:1;stroke-width:0.796104" /></svg>
